# xmcd
#
# Track frame offsets:
#	150
#	11843
#	30168
#	43220
#	56588
#	67380
#	83373
#	97330
#	110980
#	127735
#	140975
#	151985
#	167785
#	181503
#	199083
#	206348
#	219630
#	228893
#	242733
#	258748
#	271078
#	280850
#	293483
#	304495
#
# Disc length: 4251 seconds
#
# Revision: 2
# Processed by: cddbd v1.4b41PL1 Copyright (c) Steve Scherf et al.
# Submitted via: EZCDDA 4.3.2
#
DISCID=63109918
DTITLE=Lasica-Satinsky-Filip -  Piesne 1981-1990 CD2
DYEAR=1900
DGENRE=
TTITLE0=Song o cloveku, ktory nevedel povedat nie
TTITLE1=Song o noci vo vojenskom tabore
TTITLE2=Song o iducom municnom vagone
TTITLE3=Godot nepride
TTITLE4=Raz sa to moze stat
TTITLE5=Pokus o utek
TTITLE6=Pitva
TTITLE7=Koniec storocia
TTITLE8=1848
TTITLE9=My
TTITLE10=Uz to mame za sebou
TTITLE11=Vtip
TTITLE12=Maskrtnice
TTITLE13=Rodinne zazemie
TTITLE14=Dotaznik
TTITLE15=Maso
TTITLE16=Slovencina
TTITLE17=Valutovy cudzinec
TTITLE18=Turci iduuu
TTITLE19=Kapitan
TTITLE20=Studnica mudrosti
TTITLE21=Nezacinaj
TTITLE22=Dalekohlad
TTITLE23=Stahovavi vtaci
EXTD=
EXTT0=
EXTT1=
EXTT2=
EXTT3=
EXTT4=
EXTT5=
EXTT6=
EXTT7=
EXTT8=
EXTT9=
EXTT10=
EXTT11=
EXTT12=
EXTT13=
EXTT14=
EXTT15=
EXTT16=
EXTT17=
EXTT18=
EXTT19=
EXTT20=
EXTT21=
EXTT22=
EXTT23=
PLAYORDER=
